<svg xmlns="http://www.w3.org/2000/svg" width="40" height="40" fill="none" viewBox="0 0 40 40"><rect width="40" height="40" fill="#F7EDED" rx="6"/><path fill-rule="evenodd" stroke="#2A1E71" stroke-linecap="round" stroke-linejoin="round" stroke-width="1.5" d="M23.75 29C26.6495 29 29 26.6495 29 23.75C29 20.8505 26.6495 18.5 23.75 18.5C20.8505 18.5 18.5 20.8505 18.5 23.75C18.5 26.6495 20.8505 29 23.75 29Z" clip-rule="evenodd"/><path fill-rule="evenodd" stroke="#000" stroke-linecap="round" stroke-linejoin="round" stroke-opacity=".2" stroke-width="1.5" d="M23.75 29C26.6495 29 29 26.6495 29 23.75C29 20.8505 26.6495 18.5 23.75 18.5C20.8505 18.5 18.5 20.8505 18.5 23.75C18.5 26.6495 20.8505 29 23.75 29Z" clip-rule="evenodd"/><path stroke="#2A1E71" stroke-linecap="round" stroke-linejoin="round" stroke-width="1.5" d="M31.2499 31.25L27.4619 27.462"/><path stroke="#000" stroke-linecap="round" stroke-linejoin="round" stroke-opacity=".2" stroke-width="1.5" d="M31.2499 31.25L27.4619 27.462"/><path stroke="#2A1E71" stroke-linecap="round" stroke-linejoin="round" stroke-width="1.5" d="M20 31.25C13.7868 31.25 8.75 26.2132 8.75 20C8.75 13.7868 13.7868 8.75 20 8.75C26.2132 8.75 31.25 13.7868 31.25 20"/><path stroke="#000" stroke-linecap="round" stroke-linejoin="round" stroke-opacity=".2" stroke-width="1.5" d="M20 31.25C13.7868 31.25 8.75 26.2132 8.75 20C8.75 13.7868 13.7868 8.75 20 8.75C26.2132 8.75 31.25 13.7868 31.25 20"/><path stroke="#2A1E71" stroke-linecap="round" stroke-linejoin="round" stroke-width="1.5" d="M17.289 30.921C15.768 28.689 14.75 24.633 14.75 20C14.75 15.367 15.768 11.312 17.289 9.07898"/><path stroke="#000" stroke-linecap="round" stroke-linejoin="round" stroke-opacity=".2" stroke-width="1.5" d="M17.289 30.921C15.768 28.689 14.75 24.633 14.75 20C14.75 15.367 15.768 11.312 17.289 9.07898"/><path stroke="#2A1E71" stroke-linecap="round" stroke-linejoin="round" stroke-width="1.5" d="M8.7749 19.25H16.9999"/><path stroke="#000" stroke-linecap="round" stroke-linejoin="round" stroke-opacity=".2" stroke-width="1.5" d="M8.7749 19.25H16.9999"/><path stroke="#2A1E71" stroke-linecap="round" stroke-linejoin="round" stroke-width="1.5" d="M10.999 13.25H29"/><path stroke="#000" stroke-linecap="round" stroke-linejoin="round" stroke-opacity=".2" stroke-width="1.5" d="M10.999 13.25H29"/><path stroke="#2A1E71" stroke-linecap="round" stroke-linejoin="round" stroke-width="1.5" d="M10.0481 25.25H15.2141"/><path stroke="#000" stroke-linecap="round" stroke-linejoin="round" stroke-opacity=".2" stroke-width="1.5" d="M10.0481 25.25H15.2141"/><path stroke="#2A1E71" stroke-linecap="round" stroke-linejoin="round" stroke-width="1.5" d="M22.7109 9.07898C23.8892 11.0382 24.639 13.2249 24.9109 15.495"/><path stroke="#000" stroke-linecap="round" stroke-linejoin="round" stroke-opacity=".2" stroke-width="1.5" d="M22.7109 9.07898C23.8892 11.0382 24.639 13.2249 24.9109 15.495"/></svg>