<svg xmlns="http://www.w3.org/2000/svg" width="40" height="40" fill="none" viewBox="0 0 40 40"><rect width="40" height="40" fill="#F7EDED" rx="6"/><path fill-rule="evenodd" stroke="#2A1E71" stroke-linecap="round" stroke-linejoin="round" stroke-width="1.5" d="M20 27.5C21.4497 27.5 22.625 26.3247 22.625 24.875C22.625 23.4253 21.4497 22.25 20 22.25C18.5503 22.25 17.375 23.4253 17.375 24.875C17.375 26.3247 18.5503 27.5 20 27.5Z" clip-rule="evenodd"/><path fill-rule="evenodd" stroke="#000" stroke-linecap="round" stroke-linejoin="round" stroke-opacity=".2" stroke-width="1.5" d="M20 27.5C21.4497 27.5 22.625 26.3247 22.625 24.875C22.625 23.4253 21.4497 22.25 20 22.25C18.5503 22.25 17.375 23.4253 17.375 24.875C17.375 26.3247 18.5503 27.5 20 27.5Z" clip-rule="evenodd"/><path stroke="#2A1E71" stroke-linecap="round" stroke-linejoin="round" stroke-width="1.5" d="M24.2239 31.25C23.5968 29.4538 21.9024 28.2506 19.9999 28.2506C18.0974 28.2506 16.4029 29.4538 15.7759 31.25"/><path stroke="#000" stroke-linecap="round" stroke-linejoin="round" stroke-opacity=".2" stroke-width="1.5" d="M24.2239 31.25C23.5968 29.4538 21.9024 28.2506 19.9999 28.2506C18.0974 28.2506 16.4029 29.4538 15.7759 31.25"/><path fill-rule="evenodd" stroke="#2A1E71" stroke-linecap="round" stroke-linejoin="round" stroke-width="1.5" d="M12.9741 14C14.4239 14 15.5991 12.8247 15.5991 11.375C15.5991 9.92525 14.4239 8.75 12.9741 8.75C11.5244 8.75 10.3491 9.92525 10.3491 11.375C10.3491 12.8247 11.5244 14 12.9741 14Z" clip-rule="evenodd"/><path fill-rule="evenodd" stroke="#000" stroke-linecap="round" stroke-linejoin="round" stroke-opacity=".2" stroke-width="1.5" d="M12.9741 14C14.4239 14 15.5991 12.8247 15.5991 11.375C15.5991 9.92525 14.4239 8.75 12.9741 8.75C11.5244 8.75 10.3491 9.92525 10.3491 11.375C10.3491 12.8247 11.5244 14 12.9741 14Z" clip-rule="evenodd"/><path fill-rule="evenodd" stroke="#2A1E71" stroke-linecap="round" stroke-linejoin="round" stroke-width="1.5" d="M17.2 17.75C16.5733 15.953 14.8785 14.7491 12.9755 14.7491C11.0724 14.7491 9.37761 15.953 8.75098 17.75H17.2Z" clip-rule="evenodd"/><path fill-rule="evenodd" stroke="#000" stroke-linecap="round" stroke-linejoin="round" stroke-opacity=".2" stroke-width="1.5" d="M17.2 17.75C16.5733 15.953 14.8785 14.7491 12.9755 14.7491C11.0724 14.7491 9.37761 15.953 8.75098 17.75H17.2Z" clip-rule="evenodd"/><path fill-rule="evenodd" stroke="#2A1E71" stroke-linecap="round" stroke-linejoin="round" stroke-width="1.5" d="M27.0259 14C28.4756 14 29.6509 12.8247 29.6509 11.375C29.6509 9.92525 28.4756 8.75 27.0259 8.75C25.5761 8.75 24.4009 9.92525 24.4009 11.375C24.4009 12.8247 25.5761 14 27.0259 14Z" clip-rule="evenodd"/><path fill-rule="evenodd" stroke="#000" stroke-linecap="round" stroke-linejoin="round" stroke-opacity=".2" stroke-width="1.5" d="M27.0259 14C28.4756 14 29.6509 12.8247 29.6509 11.375C29.6509 9.92525 28.4756 8.75 27.0259 8.75C25.5761 8.75 24.4009 9.92525 24.4009 11.375C24.4009 12.8247 25.5761 14 27.0259 14Z" clip-rule="evenodd"/><path fill-rule="evenodd" stroke="#2A1E71" stroke-linecap="round" stroke-linejoin="round" stroke-width="1.5" d="M31.2498 17.75C30.6231 15.953 28.9283 14.7491 27.0253 14.7491C25.1222 14.7491 23.4274 15.953 22.8008 17.75H31.2498Z" clip-rule="evenodd"/><path fill-rule="evenodd" stroke="#000" stroke-linecap="round" stroke-linejoin="round" stroke-opacity=".2" stroke-width="1.5" d="M31.2498 17.75C30.6231 15.953 28.9283 14.7491 27.0253 14.7491C25.1222 14.7491 23.4274 15.953 22.8008 17.75H31.2498Z" clip-rule="evenodd"/><path stroke="#2A1E71" stroke-linecap="round" stroke-linejoin="round" stroke-width="1.5" d="M11.75 20.75V24.5C11.75 25.7426 12.7574 26.75 14 26.75H14.75"/><path stroke="#000" stroke-linecap="round" stroke-linejoin="round" stroke-opacity=".2" stroke-width="1.5" d="M11.75 20.75V24.5C11.75 25.7426 12.7574 26.75 14 26.75H14.75"/><path stroke="#2A1E71" stroke-linecap="round" stroke-linejoin="round" stroke-width="1.5" d="M28.25 20.75V24.5C28.25 25.7426 27.2426 26.75 26 26.75H25.25"/><path stroke="#000" stroke-linecap="round" stroke-linejoin="round" stroke-opacity=".2" stroke-width="1.5" d="M28.25 20.75V24.5C28.25 25.7426 27.2426 26.75 26 26.75H25.25"/></svg>